<svg xmlns="http://www.w3.org/2000/svg" viewBox="0 0 459.53 131.04"><defs><style>.cls-1{fill:#210227;}</style></defs><g id="Layer_2" data-name="Layer 2"><g id="Layer_1-2" data-name="Layer 1"><path class="cls-1" d="M57,0H50.24a38,38,0,0,0-18,4.11A30.12,30.12,0,0,0,20.14,15.35a31.28,31.28,0,0,0-4.3,16.51V48.59H3.43A3.43,3.43,0,0,0,0,52V62.59A3.44,3.44,0,0,0,3.43,66H15.84v59.79a3.44,3.44,0,0,0,3.43,3.43H32.59A3.44,3.44,0,0,0,36,125.82V66H57a3.43,3.43,0,0,0,3.43-3.44V52A3.42,3.42,0,0,0,57,48.59H36V31.7q0-6.54,3.68-10.15T50.24,18H57a3.43,3.43,0,0,0,3.43-3.44V3.43A3.43,3.43,0,0,0,57,0Z"/><path class="cls-1" d="M118.25,67.25l6.63-8.8a3.47,3.47,0,0,0-.19-5.05A26.52,26.52,0,0,0,118,49.09a28.15,28.15,0,0,0-11.32-2.18q-14.22,0-21.5,9.31c-.15.19-.28.41-.44.62V52a3.42,3.42,0,0,0-3.43-3.43H68A3.43,3.43,0,0,0,64.52,52v73.8A3.44,3.44,0,0,0,68,129.25H81.27a3.43,3.43,0,0,0,3.43-3.43V84.47q0-10.22,5.09-14.92a18.42,18.42,0,0,1,13-4.7,19.19,19.19,0,0,1,6.49,1,25.85,25.85,0,0,1,4.46,2.25A3.39,3.39,0,0,0,118.25,67.25Z"/><path class="cls-1" d="M378.41,76.59V5.11A3.43,3.43,0,0,0,375,1.68H361.66a3.44,3.44,0,0,0-3.43,3.43V51.24c-13.94-5.89-30.88-6.17-44.23,1.29a42.83,42.83,0,0,0-15.91,15.09A40,40,0,0,0,292.25,89a40.07,40.07,0,0,0,5.84,21.3A42.05,42.05,0,0,0,314,125.39c16.78,9.24,39.39,7.19,53.21-6.45a37.86,37.86,0,0,0,10-18.53c1.66-7.13,1.3-14.23,1.19-21.47C378.42,78.16,378.41,77.37,378.41,76.59Zm-19.9,20.28a21.24,21.24,0,0,1-4.87,8c-7.16,7.38-19.15,9-28.28,4.57-12.18-5.89-15.79-21.75-9.42-33,8.75-15.5,32.74-15.3,40.95,0A27,27,0,0,1,358.51,96.87Z"/><path class="cls-1" d="M458.85,123.78,432.31,87.69l24.78-33.64a3.43,3.43,0,0,0-2.76-5.46H439.75a3.44,3.44,0,0,0-2.82,1.47l-16.42,23.6L403.71,50a3.43,3.43,0,0,0-2.8-1.44H385.13a3.43,3.43,0,0,0-2.75,5.48l25.34,34-26.87,35.69a3.43,3.43,0,0,0,2.74,5.5h14.69a3.43,3.43,0,0,0,2.8-1.44L419.51,102l18.12,25.78a3.42,3.42,0,0,0,2.81,1.46h15.65A3.43,3.43,0,0,0,458.85,123.78Z"/><path class="cls-1" d="M267.36,52.44a44.85,44.85,0,0,0-22.11-5.53,41.79,41.79,0,0,0-21.06,5.2,37.57,37.57,0,0,0-14.3,14.25,41.18,41.18,0,0,0-5.18,20.8,32.79,32.79,0,0,0,.27,4c.07.59.14,1.2.22,1.83a3.46,3.46,0,0,0,3.42,3h2.6a9.37,9.37,0,0,0,3.14-.55,28.49,28.49,0,0,1,21,.1,81.67,81.67,0,0,0,8.95,2.9,14,14,0,0,1,2.33.89,1.16,1.16,0,0,1,.14,2.19,9.11,9.11,0,0,1-6.14,1.11,21.68,21.68,0,0,1-3.65-.83c-.58-.18-1.16-.38-1.74-.59-.38-.14-1.38-.58-2.2-.88a22,22,0,0,0,3.27,2.56,13.74,13.74,0,0,0,3.17,1.56,16.26,16.26,0,0,0,9.12.16,54.39,54.39,0,0,0,9-3.35c1.1-.48,2.19-1,3.28-1.47a27.28,27.28,0,0,1,3.38-1.45c1-.31,4.16-.62,3.12,1.39a15.76,15.76,0,0,1-2.42,3,21.08,21.08,0,0,1-3.05,2.77c-5,3.66-9.58,6.66-16.92,7.6a21.07,21.07,0,0,1-5.72,0,30,30,0,0,1-8.74-3c-2.66-1.29-1.78-1-6.41-3.78a2.41,2.41,0,0,0-.87-.29,3.49,3.49,0,0,0-2.84.94l-7.65,7.52a3.49,3.49,0,0,0,.12,5,39.67,39.67,0,0,0,12.43,7.78,50.36,50.36,0,0,0,18.7,3.52,48.06,48.06,0,0,0,22.89-5.45,41.86,41.86,0,0,0,12.58-10.11h0v0a40.75,40.75,0,0,0,3.53-4.86A40.17,40.17,0,0,0,289,89a40.58,40.58,0,0,0-5.79-21.46A41.7,41.7,0,0,0,267.36,52.44Zm-43,28a23.63,23.63,0,0,1,2.14-6,18.59,18.59,0,0,1,7.37-7.64,23.64,23.64,0,0,1,11.75-2.68,24.65,24.65,0,0,1,12.46,3,20.81,20.81,0,0,1,8.16,8.47,23.29,23.29,0,0,1,1.88,4.93Z"/><path class="cls-1" d="M123,67.54A40.58,40.58,0,0,0,117.18,89a40.17,40.17,0,0,0,5.88,21.47,40.75,40.75,0,0,0,3.53,4.86v0h0a41.82,41.82,0,0,0,12.57,10.11,48.13,48.13,0,0,0,22.9,5.45,50.31,50.31,0,0,0,18.69-3.52,39.56,39.56,0,0,0,12.43-7.78,3.47,3.47,0,0,0,.12-5l-7.65-7.52a3.46,3.46,0,0,0-2.83-.94,2.41,2.41,0,0,0-.87.29c-4.63,2.82-3.75,2.49-6.41,3.78a30,30,0,0,1-8.74,3,21.07,21.07,0,0,1-5.72,0c-7.34-.94-11.89-3.94-16.92-7.6a21.08,21.08,0,0,1-3-2.77,15.76,15.76,0,0,1-2.42-3c-1-2,2.11-1.7,3.12-1.39a28,28,0,0,1,3.38,1.45c1.09.51,2.18,1,3.28,1.47a54.39,54.39,0,0,0,9,3.35,16.26,16.26,0,0,0,9.12-.16,13.48,13.48,0,0,0,3.16-1.56,21.55,21.55,0,0,0,3.28-2.56c-.82.3-1.82.74-2.2.88-.58.21-1.16.41-1.74.59a21.68,21.68,0,0,1-3.65.83,9.11,9.11,0,0,1-6.14-1.11c-1-.69-.94-1.64.14-2.19a13.65,13.65,0,0,1,2.33-.89,81,81,0,0,0,8.94-2.9,28.52,28.52,0,0,1,21.05-.1,9.37,9.37,0,0,0,3.14.55h2.6a3.44,3.44,0,0,0,3.41-3c.08-.63.16-1.24.23-1.83a34.76,34.76,0,0,0,.26-4,41.28,41.28,0,0,0-5.17-20.8,37.59,37.59,0,0,0-14.31-14.25,41.72,41.72,0,0,0-21.05-5.2,44.91,44.91,0,0,0-22.12,5.53A41.74,41.74,0,0,0,123,67.54ZM138,80.6a23.29,23.29,0,0,1,1.88-4.93,20.75,20.75,0,0,1,8.16-8.47,24.63,24.63,0,0,1,12.45-3,23.68,23.68,0,0,1,11.76,2.68,18.59,18.59,0,0,1,7.37,7.64,23.63,23.63,0,0,1,2.14,6Z"/></g></g></svg>